#N canvas 63 101 450 300 12;
#X obj 31 27 inlet;
#X obj 31 58 s \$1;
#X obj 31 97 r \$1;
#X obj 30 211 outlet;
#X obj 98 214 outlet;
#X obj 28 141 list prepend set;
#X obj 27 168 list trim;
#X connect 0 0 1 0;
#X connect 2 0 4 0;
#X connect 2 0 5 0;
#X connect 5 0 6 0;
#X connect 6 0 3 0;
