#N canvas 382 420 559 444 12;
#X obj 62 80 t b l;
#X obj 62 118 until;
#X obj 65 153 list;
#X obj 66 188 list split 1;
#X obj 110 221 route bang;
#X obj 111 257 t b;
#X obj 69 48 inlet;
#X obj 63 327 outlet;
#X connect 0 0 1 0;
#X connect 0 1 2 1;
#X connect 1 0 2 0;
#X connect 2 0 3 0;
#X connect 3 0 7 0;
#X connect 3 1 4 0;
#X connect 4 0 5 0;
#X connect 4 1 2 1;
#X connect 5 0 1 1;
#X connect 6 0 0 0;
