#N canvas 718 262 638 577 12;
#X floatatom 38 96 5 0 0 0 - - - 0;
#X obj 40 218 print;
#X text 80 94 input float;
#X text 88 217 <index> <input>;
#X text 161 136 index to prepend;
#X obj 37 170 list-prepend;
#X msg 116 136 1 3 5;
#X text 135 171 default value is 1;
#X text 16 19 @TODO adding argument for index;
#X connect 0 0 5 0;
#X connect 5 0 1 0;
#X connect 6 0 5 1;
