#N canvas 178 351 665 464 12;
#X obj 84 198 list-iter;
#X obj 92 128 t b f;
#X obj 86 236 pack f f;
#X obj 84 163 list store 1;
#X obj 88 31 inlet;
#X obj 92 316 outlet;
#X obj 195 31 inlet;
#X connect 0 0 2 0;
#X connect 1 0 3 0;
#X connect 1 1 2 1;
#X connect 2 0 5 0;
#X connect 3 0 0 0;
#X connect 4 0 1 0;
#X connect 6 0 3 1;
#X coords 0 464 1 463 200 200 0;
