#N canvas 337 80 610 744 12;
#X obj 20 12 r \$1;
#X obj 258 292 inlet;
#X obj 282 338 s \$1;
#X msg 26 563 \$2 \, \$1 \$3;
#X obj 40 597 line 0;
#X obj 87 691 outlet;
#X obj 93 437 f 0;
#X obj 169 463 f 0;
#X text 124 415 interp;
#X text 190 499 value;
#X obj 194 649 ==;
#X obj 196 678 change;
#X obj 25 503 pack f f f;
#X msg 249 610 set 0;
#X obj 21 47 t l b;
#X obj 197 709 t 0;
#X obj 34 623 t f f f f;
#X msg 18 685 set \$1;
#X obj 16 722 outlet;
#X obj 26 382 t f b b f;
#X obj 28 234 f;
#X obj 71 234 f;
#X obj 26 187 t b b;
#X obj 77 191 t b 0;
#X obj 24 113 t b f;
#X obj 90 114 t b f;
#X obj 25 76 unpack f f;
#X obj 30 312 unpack f f;
#X obj 24 149 vanilla-onebang;
#X obj 34 278 pack f f;
#X connect 0 0 14 0;
#X connect 1 0 2 0;
#X connect 1 0 7 1;
#X connect 3 0 4 0;
#X connect 4 0 16 0;
#X connect 6 0 12 2;
#X connect 7 0 12 1;
#X connect 10 0 11 0;
#X connect 11 0 15 0;
#X connect 12 0 3 0;
#X connect 13 0 11 0;
#X connect 14 0 26 0;
#X connect 14 1 13 0;
#X connect 15 0 6 1;
#X connect 16 0 17 0;
#X connect 16 1 5 0;
#X connect 16 2 10 0;
#X connect 16 3 7 1;
#X connect 17 0 18 0;
#X connect 19 0 12 0;
#X connect 19 1 6 0;
#X connect 19 2 7 0;
#X connect 19 3 10 1;
#X connect 20 0 29 0;
#X connect 21 0 29 1;
#X connect 22 0 20 0;
#X connect 22 1 21 0;
#X connect 23 0 20 0;
#X connect 23 1 21 0;
#X connect 24 0 28 0;
#X connect 24 1 20 1;
#X connect 25 0 28 1;
#X connect 25 1 21 1;
#X connect 26 0 24 0;
#X connect 26 1 25 0;
#X connect 27 0 19 0;
#X connect 27 1 6 1;
#X connect 28 0 22 0;
#X connect 28 1 23 0;
#X connect 29 0 27 0;
