#N canvas 718 262 638 577 12;
#X text 23 36 @writing list to send values to DMX;
#X obj 40 89 rnd/rndCenterSpread 1;
#X floatatom 55 346 5 0 0 0 - - - 0;
#X obj 394 37 loadbang;
#X msg 437 120 \; pd dsp 1 \;;
#X msg 396 67 \; 1-rnd-reset bang \; 2-rnd-reset bang \;;
#X obj 86 456 print;
#X msg 200 373 list 1 3 6 19;
#X obj 177 403 list split 1;
#X obj 181 450 print;
#X obj 411 448 print;
#X msg 401 358 list 1 3 6 19;
#X obj 402 390 list-iter;
#X obj 304 467 list prepend;
#X obj 297 496 print;
#X obj 366 250 fbk toto;
#X symbolatom 282 250 10 0 0 0 - - - 0;
#X symbolatom 413 289 10 0 0 0 - - - 0;
#X msg 469 250 \; toto pouet;
#X connect 1 0 2 0;
#X connect 1 0 13 0;
#X connect 3 0 5 0;
#X connect 3 0 4 0;
#X connect 7 0 8 0;
#X connect 8 0 6 0;
#X connect 8 1 9 0;
#X connect 11 0 12 0;
#X connect 12 0 10 0;
#X connect 12 0 13 1;
#X connect 13 0 14 0;
#X connect 15 0 16 0;
#X connect 15 1 17 0;
#X connect 16 0 15 0;
