#N canvas 616 146 515 257 10;
#X obj 17 10 inlet;
#X obj 20 146 spigot 1;
#X obj 86 160 bng 15 250 50 0 empty empty empty 0 -6 0 10 #fcfcfc #000000
#000000;
#X obj 64 84 tgl 15 0 empty empty empty 0 -6 0 10 #fcfcfc #000000 #000000
0 1;
#X msg 63 47 1;
#X obj 68 10 inlet;
#X obj 94 47 loadbang;
#X obj 20 175 outlet;
#X obj 134 174 outlet;
#X obj 186 96 tgl 15 0 empty empty empty 0 -6 0 10 #fcfcfc #000000
#000000 0 1;
#X obj 217 47 loadbang;
#X msg 186 47 0;
#X obj 126 74 t b b;
#X obj 20 115 t b b;
#X obj 133 147 spigot 0;
#X connect 0 0 13 0;
#X connect 1 0 2 0;
#X connect 1 0 7 0;
#X connect 2 0 12 0;
#X connect 3 0 1 1;
#X connect 4 0 3 0;
#X connect 5 0 4 0;
#X connect 5 0 11 0;
#X connect 6 0 4 0;
#X connect 9 0 14 1;
#X connect 10 0 11 0;
#X connect 11 0 9 0;
#X connect 12 0 3 0;
#X connect 12 1 9 0;
#X connect 13 0 1 0;
#X connect 13 1 14 0;
#X connect 14 0 8 0;
