#N canvas 335 387 1146 487 12;
#N canvas 959 386 445 331 Dealing_with_"\$0" 0;
#X text 36 33 '\$0' - the patch ID number used to force locality in
Pd - is widely used in send/receive names as well as array names. This
is specially useful in abstractions so each copy has local names instead
of global., f 49;
#X text 35 115 If you are using a message as a 'send' \, you need to
load the '\$0' in an object \, since "\$0" doesn't work in messages.
, f 49;
#X msg 203 246 \; \$1-x 15;
#X obj 203 214 f \$0;
#X obj 303 208 r \$0-x;
#X floatatom 303 237 5 0 0 0 - - - 0;
#X obj 203 188 bng 15 250 50 0 empty empty empty 17 7 0 10 #fcfcfc
#000000 #000000;
#X obj 73 213 symbol \$0-x;
#X msg 73 242 \; \$1 20;
#X obj 73 189 bng 15 250 50 0 empty empty empty 17 7 0 10 #fcfcfc #000000
#000000;
#X text 102 186 <= click =>;
#X connect 3 0 2 0;
#X connect 4 0 5 0;
#X connect 6 0 3 0;
#X connect 7 0 8 0;
#X connect 9 0 7 0;
#X restore 337 43 pd Dealing_with_"\$0";
#X obj 64 63 f \$0;
#X floatatom 115 184 5 0 0 0 - - - 0;
#X text 119 215 \$0;
#X obj 108 62 f \$1;
#X floatatom 169 185 5 0 0 0 - - - 0;
#X text 173 216 \$1;
#X floatatom 231 184 5 0 0 0 - - - 0;
#X text 235 215 \$2;
#X obj 156 62 f \$2;
#X obj 59 15 loadbang;
#X floatatom 238 249 5 0 0 0 - - - 0;
#X text 238 269 \$1-pouet;
#X obj 275 112 bng 15 250 50 0 empty empty empty 17 7 0 10 #fcfcfc
#000000 #000000;
#X obj 275 132 s \$1-reset;
#X floatatom 180 251 5 0 0 0 - - - 0;
#X obj 480 162 r \$1-reset;
#X text 168 273 \$1-toto;
#X msg 478 239 \; \$1 100 \; \$2 200 \;;
#X obj 476 203 list store \$1-pouet \$1-toto;
#X obj 321 254 r+ \$1-pouet;
#X obj 202 305 r+ \$1-toto;
#X text 207 111 \$1-reset;
#X text 106 105 myAbs;
#N canvas 121 159 398 336 coller 0;
#X obj 17 253 coll \$1-myAbs;
#C restore;
#X obj 14 22 r \$1-toto;
#X obj 13 45 t b f;
#X obj 14 128 pack symbol float;
#X obj 14 82 symbol \$1-toto;
#X obj 147 43 t b f;
#X obj 148 126 pack symbol float;
#X obj 148 20 r \$1-pouet;
#X obj 148 80 symbol \$1-pouet;
#X obj 22 191 list prepend store;
#X obj 24 224 list trim;
#X connect 1 0 2 0;
#X connect 2 0 4 0;
#X connect 2 1 3 1;
#X connect 3 0 9 0;
#X connect 4 0 3 0;
#X connect 5 0 8 0;
#X connect 5 1 6 1;
#X connect 6 0 9 0;
#X connect 7 0 5 0;
#X connect 8 0 6 0;
#X connect 9 0 10 0;
#X connect 10 0 0 0;
#X restore 789 196 pd coller;
#X connect 1 0 2 0;
#X connect 4 0 5 0;
#X connect 9 0 7 0;
#X connect 10 0 1 0;
#X connect 10 0 4 0;
#X connect 10 0 9 0;
#X connect 11 0 20 0;
#X connect 13 0 14 0;
#X connect 15 0 21 0;
#X connect 16 0 19 0;
#X connect 19 0 18 0;
#X connect 20 0 11 0;
#X connect 21 0 15 0;
#X coords 0 -1 1 1 200 200 1 100 100;
