#N canvas 786 507 637 324 12;
#C restore;
#X obj 0 0 r \$1-toto;
#X obj 0 30 t b f;
#X obj 0 60 symbol \$1-toto;
#X obj 0 90 pack symbol float;
#X obj 150 0 r \$1-pouet;
#X obj 150 30 t b f;
#X obj 150 60 symbol \$1-pouet;
#X obj 150 90 pack symbol float;
#X obj 0 200 list prepend store;
#X obj 0 230 list trim;
#X obj 0 260 coll \$1-myAbs;
#X connect 1 0 2 0;
#X connect 2 0 4 0;
#X connect 2 1 3 1;
#X connect 3 0 9 0;
#X connect 4 0 3 0;
#X connect 5 0 8 0;
#X connect 5 1 6 1;
#X connect 6 0 9 0;
#X connect 7 0 5 0;
#X connect 8 0 6 0;
#X connect 9 0 10 0;
#X connect 10 0 0 0;
