#N canvas 52 238 874 548 12;
#X obj 740 50 loadbang;
#X msg 783 133 \; pd dsp 1 \;;
#X floatatom 79 269 5 0 0 0 - - - 0;
#X floatatom 66 351 5 0 0 0 - - - 0;
#X obj 66 317 r 2-rnd-value;
#X obj 67 34 rndCenterSpread 1;
#X msg 742 80 \; 1-rnd-reset bang \;;
#X obj 183 294 - 10;
#X floatatom 310 269 5 0 0 0 - - - 0;
#X obj 298 34 rndCenterSpread 2;
#N canvas 991 189 450 300 OSC 1;
#X obj 69 190 netsend -u -b;
#X msg 200 190 connect localhost 4002;
#X obj 79 117 oscformat /track/1/x;
#X obj 242 116 oscformat /track/1/y;
#X obj 93 69 r+ panoramixX;
#X obj 253 69 r+ panoramixY;
#X obj 218 156 loadbang;
#X connect 1 0 0 0;
#X connect 2 0 0 0;
#X connect 3 0 0 0;
#X connect 4 1 2 0;
#X connect 5 1 3 0;
#X connect 6 0 1 0;
#X restore 631 160 pd OSC;
#X msg 213 335 \; panoramixX \$1 1000;
#X msg 388 334 \; panoramixY \$1 1000;
#X obj 612 328 lecteur/lecteur;
#X obj 819 497 bng 15 250 50 0 empty empty empty 17 7 0 10 #fcfcfc
#000000 #000000;
#X obj 547 491 dac~;
#X obj 700 510 print;
#X connect 0 0 6 0;
#X connect 0 0 1 0;
#X connect 4 0 3 0;
#X connect 5 0 2 0;
#X connect 5 0 7 0;
#X connect 7 0 11 0;
#X connect 9 0 8 0;
#X connect 9 0 12 0;
#X connect 13 0 15 0;
#X connect 13 8 14 0;
#X connect 13 8 16 0;
