#N canvas 630 38 874 837 12;
#X obj 52 98 metro;
#X obj 189 151 * 0;
#X obj 189 191 + 0;
#X obj 342 157 - 0;
#X obj 341 124 t b f;
#X obj 310 92 t f f;
#X obj 168 15 noise~;
#X obj 180 57 snapshot~;
#X obj 185 86 * 0.5;
#X obj 184 115 + 0.5;
#X obj 279 133 * 2;
#X obj 83 134 bng 15 250 50 0 empty empty empty 17 7 0 10 #fcfcfc #000000
#000000;
#X obj 68 365 * 0;
#X obj 68 405 + 0;
#X obj 340 377 - 0;
#X obj 339 344 t b f;
#X obj 295 311 t f f;
#X obj 47 229 noise~;
#X obj 59 271 snapshot~;
#X obj 64 300 * 0.5;
#X obj 63 329 + 0.5;
#X obj 277 353 * 2;
#X obj 250 39 t f f;
#X obj 406 62 *;
#X obj 405 38 t b f;
#X obj 161 287 t f f;
#X obj 369 276 t b f;
#X obj 372 310 *;
#X obj 512 475 vsl 15 90 0 1 0 0 empty empty empty 0 -9 0 10 #fcfcfc
#000000 #000000 0 1;
#X obj 508 377 tgl 15 0 empty empty empty 17 7 0 10 #fcfcfc #000000
#000000 0 1;
#X floatatom 507 430 5 0 0 0 - - - 0;
#X floatatom 659 429 5 0 0 0 - - - 0;
#X obj 679 475 vsl 15 90 0 1 0 0 empty empty empty 0 -9 0 10 #fcfcfc
#000000 #000000 0 1;
#X obj 676 377 bng 15 250 50 0 empty empty empty 17 7 0 10 #fcfcfc
#000000 #000000;
#X floatatom 545 547 5 0 0 0 - - - 0;
#X obj 552 629 s \$0-l-rnd-spread-time;
#X obj 735 629 s \$0-l-rnd-spread-value;
#X obj 731 473 s \$0-l-rnd-center-value;
#X obj 335 465 s \$0-l-rnd-center-time;
#X obj 369 240 r \$0-l-rnd-spread-value;
#X obj 154 247 r \$0-l-rnd-center-value;
#X obj 401 6 r \$0-l-rnd-spread-time;
#X obj 234 11 r \$0-l-rnd-center-time;
#X obj 40 627 outlet;
#X obj 444 579 r+ \$1-rnd-spread-time;
#X obj 631 592 r+ \$1-rnd-spread-value;
#X obj 702 416 r+ \$1-rnd-center-value;
#X obj 719 353 s \$1-rnd-reset;
#X obj 385 378 fbk \$1-rnd-enable;
#X obj 350 433 r+ \$1-rnd-center-time;
#X obj 66 573 s \$1-rnd-value;
#X obj 21 23 r \$1-rnd-enable;
#X msg 38 758 \; \$1 0 \; \$2 1000 \; \$3 0.2 \; \$4 1 \; \$5 0.2 \;
;
#X obj 36 707 list store \$1-rnd-enable \$1-rnd-center-time \$1-rnd-spread-time
\$1-rnd-center-value \$1-rnd-spread-value;
#X obj 34 674 r \$1-rnd-reset;
#X floatatom 531 474 5 0 0 0 - - - 0;
#X floatatom 638 476 5 0 0 0 - - - 0;
#X obj 123 186 max 20;
#X text 581 548 rnd-value;
#X text 503 411 center-time;
#X text 526 375 enable;
#X text 633 375 reset;
#X text 610 411 center-value;
#X text 505 453 spread-time;
#X text 610 454 spread-value;
#X connect 0 0 7 0;
#X connect 0 0 11 0;
#X connect 0 0 18 0;
#X connect 1 0 2 0;
#X connect 2 0 57 0;
#X connect 3 0 2 1;
#X connect 4 0 3 0;
#X connect 4 1 3 1;
#X connect 5 0 10 0;
#X connect 5 1 4 0;
#X connect 6 0 7 0;
#X connect 7 0 8 0;
#X connect 8 0 9 0;
#X connect 9 0 1 0;
#X connect 10 0 1 1;
#X connect 12 0 13 0;
#X connect 13 0 34 0;
#X connect 13 0 43 0;
#X connect 13 0 50 0;
#X connect 14 0 13 1;
#X connect 15 0 14 0;
#X connect 15 1 14 1;
#X connect 16 0 21 0;
#X connect 16 1 15 0;
#X connect 17 0 18 0;
#X connect 18 0 19 0;
#X connect 19 0 20 0;
#X connect 20 0 12 0;
#X connect 21 0 12 1;
#X connect 22 0 3 0;
#X connect 22 1 23 0;
#X connect 23 0 5 0;
#X connect 24 0 23 0;
#X connect 24 1 23 1;
#X connect 25 0 14 0;
#X connect 25 1 27 0;
#X connect 26 0 27 0;
#X connect 26 1 27 1;
#X connect 27 0 16 0;
#X connect 28 0 44 0;
#X connect 29 0 48 0;
#X connect 30 0 49 0;
#X connect 31 0 46 0;
#X connect 32 0 45 0;
#X connect 33 0 47 0;
#X connect 39 0 26 0;
#X connect 40 0 25 0;
#X connect 41 0 24 0;
#X connect 42 0 22 0;
#X connect 44 0 28 0;
#X connect 44 0 55 0;
#X connect 44 1 35 0;
#X connect 45 0 32 0;
#X connect 45 0 56 0;
#X connect 45 1 36 0;
#X connect 46 0 31 0;
#X connect 46 1 37 0;
#X connect 48 0 29 0;
#X connect 49 0 30 0;
#X connect 49 1 38 0;
#X connect 51 0 0 0;
#X connect 53 0 52 0;
#X connect 54 0 53 0;
#X connect 55 0 44 0;
#X connect 56 0 45 0;
#X connect 57 0 0 1;
#X coords 0 -1 1 1 200 220 1 500 350;
