#N canvas 402 38 1031 837 12;
#X obj 52 98 metro;
#X obj 168 15 noise~;
#X obj 165 63 snapshot~;
#X obj 83 134 bng 15 250 50 0 empty empty empty 17 7 0 10 #fcfcfc #000000
#000000;
#X obj 47 229 noise~;
#X obj 59 271 snapshot~;
#X obj 508 377 tgl 15 0 empty empty empty 17 7 0 10 #fcfcfc #000000
#000000 0 1;
#X floatatom 514 432 5 0 0 0 - - - 0;
#X floatatom 630 430 5 0 0 0 - - - 0;
#X text 575 511 rnd;
#X obj 676 377 bng 15 250 50 0 empty empty empty 17 7 0 10 #fcfcfc
#000000 #000000;
#X floatatom 579 534 5 0 0 0 - - - 0;
#X obj 40 627 outlet;
#X obj 719 353 s \$1-rnd-reset;
#X obj 385 378 fbk \$1-rnd-enable;
#X obj 66 573 s \$1-rnd-value;
#X obj 21 23 r \$1-rnd-enable;
#X obj 34 674 r \$1-rnd-reset;
#X floatatom 515 473 5 0 0 0 - - - 0;
#X floatatom 629 470 5 0 0 0 - - - 0;
#X obj 75 66 max 20;
#X obj 234 11 r \$0-l-rnd-min-time;
#X obj 401 6 r \$0-l-rnd-max-time;
#X obj 109 348 r \$0-l-rnd-min-value;
#X obj 182 390 r \$0-l-rnd-max-value;
#X obj 352 473 r+ \$1-rnd-max-time;
#X obj 350 433 r+ \$1-rnd-min-time;
#X obj 703 431 r+ \$1-rnd-min-value;
#X obj 702 469 r+ \$1-rnd-max-value;
#X obj 848 459 s \$0-l-rnd-min-value;
#X obj 847 496 s \$0-l-rnd-max-value;
#X obj 315 519 s \$0-l-rnd-min-time;
#X obj 316 553 s \$0-l-rnd-max-time;
#X obj 36 707 list store \$1-rnd-enable \$1-rnd-min-time \$1-rnd-max-time
\$1-rnd-min-value \$1-rnd-max-value;
#X msg 38 758 \; \$1 0 \; \$2 600 \; \$3 1200 \; \$4 0 \; \$5 1 \;
;
#X obj 174 118 expr ($f1*0.5+0.5)*($f3-$f2)+$f2;
#X obj 54 429 expr ($f1*0.5+0.5)*($f3-$f2)+$f2;
#X obj 11 157 switch~;
#X text 526 375 rnd-enable;
#X text 609 376 rnd-reset;
#X text 503 407 rnd-min-time;
#X text 504 453 rnd-max-time;
#X text 603 450 rnd-max-value;
#X text 605 407 rnd-min-value;
#X connect 0 0 3 0;
#X connect 0 0 5 0;
#X connect 0 0 2 0;
#X connect 1 0 2 0;
#X connect 2 0 35 0;
#X connect 4 0 5 0;
#X connect 5 0 36 0;
#X connect 6 0 14 0;
#X connect 7 0 26 0;
#X connect 8 0 27 0;
#X connect 10 0 13 0;
#X connect 14 0 6 0;
#X connect 16 0 0 0;
#X connect 16 0 37 0;
#X connect 17 0 33 0;
#X connect 18 0 25 0;
#X connect 19 0 28 0;
#X connect 20 0 0 1;
#X connect 21 0 35 1;
#X connect 22 0 35 2;
#X connect 23 0 36 1;
#X connect 24 0 36 2;
#X connect 25 0 18 0;
#X connect 25 1 32 0;
#X connect 26 0 7 0;
#X connect 26 1 31 0;
#X connect 27 0 8 0;
#X connect 27 1 29 0;
#X connect 28 0 19 0;
#X connect 28 1 30 0;
#X connect 33 0 34 0;
#X connect 35 0 20 0;
#X connect 36 0 15 0;
#X connect 36 0 12 0;
#X connect 36 0 11 0;
#X coords 0 -1 1 1 200 220 1 500 350;
