#N canvas 528 38 874 837 12;
#X obj 52 98 metro;
#X obj 189 151 * 0;
#X obj 189 191 + 0;
#X obj 342 157 - 0;
#X obj 341 124 t b f;
#X obj 310 92 t f f;
#X obj 168 15 noise~;
#X obj 180 57 snapshot~;
#X obj 185 86 * 0.5;
#X obj 184 115 + 0.5;
#X obj 279 133 * 2;
#X obj 83 134 bng 15 250 50 0 empty empty empty 17 7 0 10 #fcfcfc #000000
#000000;
#X obj 68 365 * 0;
#X obj 68 405 + 0;
#X obj 340 377 - 0;
#X obj 339 344 t b f;
#X obj 295 311 t f f;
#X obj 47 229 noise~;
#X obj 59 271 snapshot~;
#X obj 64 300 * 0.5;
#X obj 63 329 + 0.5;
#X obj 277 353 * 2;
#X obj 250 39 t f f;
#X obj 406 62 *;
#X obj 405 38 t b f;
#X obj 161 287 t f f;
#X obj 369 276 t b f;
#X obj 372 310 *;
#X obj 516 468 vsl 15 90 0 1 0 0 empty empty empty 0 -9 0 10 #fcfcfc
#000000 #000000 0 1;
#X obj 508 377 tgl 15 0 empty empty empty 17 7 0 10 #fcfcfc #000000
#000000 0 1;
#X text 526 375 enable;
#X floatatom 514 432 5 0 0 0 - - - 0;
#X floatatom 659 430 5 0 0 0 - - - 0;
#X obj 675 469 vsl 15 90 0 1 0 0 empty empty empty 0 -9 0 10 #fcfcfc
#000000 #000000 0 1;
#X text 510 408 center-time;
#X text 611 408 center-value;
#X text 511 449 spread-time;
#X text 610 447 spread-value;
#X text 575 511 rnd;
#X obj 676 377 bng 15 250 50 0 empty empty empty 17 7 0 10 #fcfcfc
#000000 #000000;
#X text 622 375 reset;
#X floatatom 579 534 5 0 0 0 - - - 0;
#X obj 552 629 s \$0-l-rnd-spread-time;
#X obj 735 629 s \$0-l-rnd-spread-value;
#X obj 731 473 s \$0-l-rnd-center-value;
#X obj 335 465 s \$0-l-rnd-center-time;
#X obj 369 240 r \$0-l-rnd-spread-value;
#X obj 154 247 r \$0-l-rnd-center-value;
#X obj 401 6 r \$0-l-rnd-spread-time;
#X obj 234 11 r \$0-l-rnd-center-time;
#X obj 40 527 outlet;
#X obj 444 579 r+ \$1-rnd-spread-time;
#X obj 631 592 r+ \$1-rnd-spread-value;
#X obj 703 431 r+ \$1-rnd-center-value;
#X obj 719 353 s \$1-rnd-reset;
#X obj 385 378 fbk \$1-rnd-enable;
#X obj 350 433 r+ \$1-rnd-center-time;
#X obj 117 625 r \$1-rnd-reset;
#X obj 66 473 s \$1-rnd-value;
#X obj 21 23 r \$1-rnd-enable;
#X obj 15 713 s \$1-rnd-center-value;
#X msg 19 670 1;
#X obj 46 744 s \$1-rnd-enable;
#X msg 58 673 0;
#X obj 89 774 s \$1-rnd-center-time;
#X msg 99 673 1000;
#X obj 165 739 s \$1-rnd-spread-time;
#X msg 152 673 0.2;
#X obj 194 714 s \$1-rnd-spread-value;
#X msg 198 671 0.2;
#X connect 0 0 7 0;
#X connect 0 0 11 0;
#X connect 0 0 18 0;
#X connect 1 0 2 0;
#X connect 2 0 0 1;
#X connect 3 0 2 1;
#X connect 4 0 3 0;
#X connect 4 1 3 1;
#X connect 5 0 10 0;
#X connect 5 1 4 0;
#X connect 6 0 7 0;
#X connect 7 0 8 0;
#X connect 8 0 9 0;
#X connect 9 0 1 0;
#X connect 10 0 1 1;
#X connect 12 0 13 0;
#X connect 13 0 41 0;
#X connect 13 0 50 0;
#X connect 13 0 58 0;
#X connect 14 0 13 1;
#X connect 15 0 14 0;
#X connect 15 1 14 1;
#X connect 16 0 21 0;
#X connect 16 1 15 0;
#X connect 17 0 18 0;
#X connect 18 0 19 0;
#X connect 19 0 20 0;
#X connect 20 0 12 0;
#X connect 21 0 12 1;
#X connect 22 0 3 0;
#X connect 22 1 23 0;
#X connect 23 0 5 0;
#X connect 24 0 23 0;
#X connect 24 1 23 1;
#X connect 25 0 14 0;
#X connect 25 1 27 0;
#X connect 26 0 27 0;
#X connect 26 1 27 1;
#X connect 27 0 16 0;
#X connect 28 0 51 0;
#X connect 29 0 55 0;
#X connect 31 0 56 0;
#X connect 32 0 53 0;
#X connect 33 0 52 0;
#X connect 39 0 54 0;
#X connect 46 0 26 0;
#X connect 47 0 25 0;
#X connect 48 0 24 0;
#X connect 49 0 22 0;
#X connect 51 0 28 0;
#X connect 51 1 42 0;
#X connect 52 0 33 0;
#X connect 52 1 43 0;
#X connect 53 0 32 0;
#X connect 53 1 44 0;
#X connect 55 0 29 0;
#X connect 56 0 31 0;
#X connect 56 1 45 0;
#X connect 57 0 61 0;
#X connect 57 0 63 0;
#X connect 57 0 65 0;
#X connect 57 0 67 0;
#X connect 57 0 69 0;
#X connect 59 0 0 0;
#X connect 61 0 60 0;
#X connect 63 0 62 0;
#X connect 65 0 64 0;
#X connect 67 0 66 0;
#X connect 69 0 68 0;
#X coords 0 -1 1 1 200 220 1 500 350;
