#N canvas 235 511 873 299 12;
#X obj 226 112 vline~;
#X obj 206 204 snapshot~;
#X obj 340 167 metro 20;
#X obj 367 97 loadbang;
#X msg 377 125 1;
#X floatatom 232 257 5 0 0 0 - - - 0;
#X msg 128 76 stop;
#X msg 223 27 0 \, 1 1000 2000 \, 0 1000 5000 \, 1 10000 10000;
#X text 246 55 <endValue> <rampTime> <delayTime>;
#X connect 0 0 1 0;
#X connect 1 0 5 0;
#X connect 2 0 1 0;
#X connect 3 0 4 0;
#X connect 4 0 2 0;
#X connect 6 0 0 0;
#X connect 7 0 0 0;
