#N canvas 507 38 721 629 12;
#X obj 57 433 list trim;
#X obj 56 397 list prepend open;
#X obj 491 74 openpanel;
#X obj 8 123 bng 15 250 50 0 empty empty fichier 17 7 0 10 #fcfcfc
#000000 #000000;
#X obj 491 134 tosymbol;
#X symbolatom 9 41 30 0 0 2 fichier - - 0;
#X obj 8 103 tgl 15 0 empty empty play 17 7 0 10 #fcfcfc #000000 #000000
0 1;
#X obj 8 143 tgl 15 0 empty empty loop 17 7 0 10 #fcfcfc #000000 #000000
0 1;
#X obj 245 134 fbk \$1-lecteur-loop;
#X obj 241 80 r+ \$1-lecteur-vol;
#X obj 6 226 sel 1 0;
#X obj 6 296 symbol;
#X obj 12 78 hsl 128 15 -65 6 0 0 empty empty vol -2 -8 0 10 #fcfcfc
#000000 #000000 0 1;
#X obj 241 38 fbk \$1-lecteur-fichier;
#X msg 51 261 0;
#X obj 523 226 r \$1-lecteur-reset;
#X obj 524 252 \$1;
#X obj 10 760 outlet~;
#X obj 355 511 + 1;
#X obj 352 556 gate 2;
#X msg 352 585 0;
#X msg 392 586 1;
#X obj 136 266 tosymbol;
#X obj 10 577 *~;
#X msg 326 420 \$1 5;
#X obj 326 449 line~;
#X obj 327 392 expr pow(10 \, $f1/20);
#X obj 327 362 substitute -65 -100;
#X obj 491 104 moonlib/relativepath;
#X obj 184 138 bng 15 250 50 0 empty empty reset 17 7 0 10 #fcfcfc
#000000 #000000;
#X msg 523 284 \; \$1-lecteur-vol -80 \; \$1-lecteur-play 0 \; \$1-lecteur-loop
0 \; \$1-lecteur-fichier / \;;
#X obj 494 169 s \$1-lecteur-fichier;
#X msg 5 372 1;
#X obj 6 336 t b s;
#X obj 8 261 t b;
#X obj 249 107 fbk \$1-lecteur-play;
#X obj 60 370 moonlib/absolutepath;
#X obj 10 470 readsf~ 8, f 35;
#X obj 44 576 *~;
#X obj 77 582 *~;
#X obj 117 582 *~;
#X obj 151 581 *~;
#X obj 184 587 *~;
#X obj 217 585 *~;
#X obj 250 591 *~;
#X obj 74 760 outlet~;
#X obj 146 758 outlet~;
#X obj 210 758 outlet~;
#X obj 274 757 outlet~;
#X obj 338 757 outlet~;
#X obj 410 755 outlet~;
#X obj 474 755 outlet~;
#X obj 22 619 send~ \$1-lecteur-output-1;
#X obj 40 659 send~ \$1-lecteur-output-2;
#X obj 68 689 send~ \$1-lecteur-output-3;
#X obj 95 720 send~ \$1-lecteur-output-4;
#X obj 241 621 send~ \$1-lecteur-output-5;
#X obj 259 661 send~ \$1-lecteur-output-6;
#X obj 287 691 send~ \$1-lecteur-output-7;
#X obj 314 722 send~ \$1-lecteur-output-8;
#X obj 468 575 s \$1-lecteur-play;
#X connect 0 0 37 0;
#X connect 1 0 0 0;
#X connect 2 0 28 0;
#X connect 3 0 2 0;
#X connect 4 0 31 0;
#X connect 5 0 13 0;
#X connect 6 0 35 0;
#X connect 7 0 8 0;
#X connect 8 0 7 0;
#X connect 8 1 18 0;
#X connect 9 0 12 0;
#X connect 9 1 27 0;
#X connect 10 0 34 0;
#X connect 10 1 14 0;
#X connect 11 0 33 0;
#X connect 12 0 9 0;
#X connect 13 0 5 0;
#X connect 13 1 22 0;
#X connect 14 0 37 0;
#X connect 15 0 16 0;
#X connect 16 0 30 0;
#X connect 18 0 19 0;
#X connect 19 0 20 0;
#X connect 19 1 21 0;
#X connect 20 0 60 0;
#X connect 21 0 60 0;
#X connect 22 0 11 1;
#X connect 23 0 17 0;
#X connect 23 0 52 0;
#X connect 24 0 25 0;
#X connect 25 0 23 1;
#X connect 25 0 38 1;
#X connect 25 0 39 1;
#X connect 25 0 40 1;
#X connect 25 0 41 1;
#X connect 25 0 42 1;
#X connect 25 0 43 1;
#X connect 25 0 44 1;
#X connect 26 0 24 0;
#X connect 27 0 26 0;
#X connect 27 1 26 0;
#X connect 28 0 4 0;
#X connect 29 0 16 0;
#X connect 32 0 37 0;
#X connect 33 0 32 0;
#X connect 33 1 36 0;
#X connect 34 0 11 0;
#X connect 35 0 6 0;
#X connect 35 1 10 0;
#X connect 36 0 1 0;
#X connect 37 0 23 0;
#X connect 37 1 38 0;
#X connect 37 2 39 0;
#X connect 37 3 40 0;
#X connect 37 4 41 0;
#X connect 37 5 42 0;
#X connect 37 6 43 0;
#X connect 37 7 44 0;
#X connect 37 8 19 1;
#X connect 38 0 45 0;
#X connect 38 0 53 0;
#X connect 39 0 46 0;
#X connect 39 0 54 0;
#X connect 40 0 47 0;
#X connect 40 0 55 0;
#X connect 41 0 48 0;
#X connect 41 0 56 0;
#X connect 42 0 49 0;
#X connect 42 0 57 0;
#X connect 43 0 50 0;
#X connect 43 0 58 0;
#X connect 44 0 51 0;
#X connect 44 0 59 0;
#X coords 0 -1 1 1 226 153 1 8 12;
