#N canvas 550 38 962 837 12;
#X obj 16 269 outlet;
#X obj 610 128 tgl 15 0 \$1-chenillard-enable \$1-chenillard-enable
enable 17 7 0 10 #fcfcfc #000000 #000000 0 1;
#X floatatom 306 124 5 0 0 0 - - - 0;
#X floatatom 291 235 5 0 0 0 - - - 0;
#X obj 305 151 s \$0-chen-speed;
#X obj 287 266 s \$0-chen-int;
#X obj 142 197 s \$0-chen-index;
#X obj 15 238 r \$0-chen-out;
#X obj 80 636 \$0;
#X obj 47 556 until;
#X obj 11 595 + 1;
#X obj 50 596 i 1;
#X obj 50 524 t f b;
#X obj 93 556 1;
#X obj 47 672 pack f f f;
#X obj 111 636 * 30;
#X msg 42 706 \; pd-poly obj 0 \$3 polychen \$2 \$1;
#X obj 66 433 loadbang;
#N canvas 92 130 450 300 poly 0;
#X obj 0 0 polychen 1033 1;
#X obj 0 30 polychen 1033 2;
#X obj 0 60 polychen 1033 3;
#X obj 0 90 polychen 1033 4;
#X obj 0 120 polychen 1033 5;
#X obj 0 150 polychen 1033 6;
#X obj 0 180 polychen 1033 7;
#X obj 0 210 polychen 1033 8;
#X obj 0 240 polychen 1033 9;
#X obj 0 270 polychen 1033 10;
#X restore 26 343 pd poly;
#X obj 61 463 t b b b;
#X msg 110 499 \; pd-poly clear;
#X floatatom 610 158 5 0 0 1 speed - - 0;
#X floatatom 610 192 5 0 0 1 intensity - - 0;
#X obj 436 160 r+ \$1-chenillard-speed;
#X text 133 125 enable;
#X floatatom 611 227 5 0 0 1 depth - - 0;
#X obj 412 194 r+ \$1-chenillard-intensity;
#X obj 442 226 r+ \$1-chenillard-depth;
#X obj 611 269 hradio 15 1 0 4 \$1-chenillard-mode \$1-chenillard-mode
mode 0 -8 0 10 #fcfcfc #000000 #000000 0;
#X obj 43 21 r \$1-chenillard-enable;
#X obj 556 363 r \$1-chenillard-reset;
#X obj 556 391 \$1;
#X msg 559 430 \; \$1-chenillard-enable 0 \; \$1-chenillard-speed 1000
\; \$1-chenillard-intensity 127 \; \$1-chenillard-depth 0 \; \$1-chenillard-mode
0 \;;
#X obj 747 126 bng 15 250 50 0 \$1-chenillard-reset \$1-chenillard-reset
reset 17 7 0 10 #fcfcfc #000000 #000000;
#X obj 241 30 r \$1-chenillard-mode;
#N canvas 174 313 753 529 scaler-for-depth 0;
#X obj 100 91 inlet;
#X text 101 54 speed;
#X obj 190 94 inlet;
#X text 191 57 depth;
#X obj 91 362 outlet;
#X text 101 326 speed of grain;
#X obj 222 362 outlet;
#X text 232 326 speed of triggering grain;
#X obj 150 222 t b f;
#X obj 154 190 *;
#X obj 97 148 t f f b f;
#X obj 113 268 +;
#X obj 179 151 / 200;
#X obj 111 219 / \$2;
#X connect 0 0 10 0;
#X connect 2 0 12 0;
#X connect 8 0 11 0;
#X connect 8 1 11 1;
#X connect 9 0 8 0;
#X connect 10 0 4 0;
#X connect 10 1 13 0;
#X connect 10 2 9 0;
#X connect 10 3 9 1;
#X connect 11 0 6 0;
#X connect 12 0 9 0;
#X connect 13 0 11 0;
#X restore 307 78 pd scaler-for-depth;
#X obj 54 494 \$2;
#X obj 144 151 counter \$2;
#X obj 85 51 inlet;
#X connect 2 0 4 0;
#X connect 3 0 5 0;
#X connect 7 0 0 0;
#X connect 8 0 14 1;
#X connect 9 0 11 0;
#X connect 10 0 11 1;
#X connect 11 0 10 0;
#X connect 11 0 14 0;
#X connect 11 0 15 0;
#X connect 12 0 9 0;
#X connect 12 1 13 0;
#X connect 13 0 11 1;
#X connect 14 0 16 0;
#X connect 15 0 14 2;
#X connect 17 0 19 0;
#X connect 19 0 36 0;
#X connect 19 1 8 0;
#X connect 19 2 20 0;
#X connect 21 0 23 0;
#X connect 22 0 26 0;
#X connect 23 0 21 0;
#X connect 23 1 35 0;
#X connect 25 0 27 0;
#X connect 26 0 22 0;
#X connect 26 1 3 0;
#X connect 27 0 25 0;
#X connect 27 1 35 1;
#X connect 29 0 37 0;
#X connect 30 0 31 0;
#X connect 31 0 32 0;
#X connect 34 0 37 2;
#X connect 35 0 2 0;
#X connect 35 1 37 1;
#X connect 36 0 12 0;
#X connect 37 0 6 0;
#X connect 38 0 37 0;
#X coords 0 -1 1 1 200 200 1 600 100;
