#N canvas 418 319 1086 434 12;
#X obj 309 17 inlet;
#X obj 74 18 inlet;
#X text 123 20 enable;
#X obj 79 82 metro 1000;
#X obj 181 18 inlet;
#X text 230 20 moveSpeed;
#X obj 88 160 i;
#X obj 136 160 + 1;
#X obj 90 268 > 2;
#X obj 17 141 route 1;
#X obj 190 239 list store;
#X text 358 19 mode 0: forward 1: backward 2: f-b 3: random;
#X msg 192 201 get \$1 1;
#X obj 190 300 outlet;
#X obj 445 249 list length;
#X obj 443 278 - 2;
#N canvas 92 130 450 547 forward 0;
#X obj 108 184 until;
#X obj 153 220 + 1;
#X obj 120 297 list store;
#X obj 39 248 bng 15 250 50 0 empty empty empty 17 7 0 10 #fcfcfc #000000
#000000;
#X msg 116 268 append \$1;
#X msg 209 271 delete 0 -1;
#X obj 110 223 f 1;
#X obj 152 183 1;
#X obj 151 39 inlet;
#X obj 118 361 outlet;
#X obj 103 144 t b f b b b;
#X connect 0 0 6 0;
#X connect 1 0 6 1;
#X connect 2 0 9 0;
#X connect 3 0 2 0;
#X connect 4 0 2 0;
#X connect 5 0 2 0;
#X connect 6 0 4 0;
#X connect 6 0 1 0;
#X connect 7 0 6 1;
#X connect 8 0 10 0;
#X connect 10 0 3 0;
#X connect 10 1 0 0;
#X connect 10 2 7 0;
#X connect 10 3 5 0;
#X restore 313 152 pd forward;
#N canvas 92 130 450 547 backward 0;
#X obj 108 184 until;
#X obj 120 297 list store;
#X obj 39 248 bng 15 250 50 0 empty empty empty 17 7 0 10 #fcfcfc #000000
#000000;
#X msg 116 268 append \$1;
#X msg 209 271 delete 0 -1;
#X obj 151 39 inlet;
#X obj 118 361 outlet;
#X obj 153 220 - 1;
#X obj 110 223 f 10;
#X obj 103 144 t b f f b b;
#X connect 0 0 8 0;
#X connect 1 0 6 0;
#X connect 2 0 1 0;
#X connect 3 0 1 0;
#X connect 4 0 1 0;
#X connect 5 0 9 0;
#X connect 7 0 8 1;
#X connect 8 0 3 0;
#X connect 8 0 7 0;
#X connect 9 0 2 0;
#X connect 9 1 0 0;
#X connect 9 2 8 1;
#X connect 9 3 4 0;
#X restore 493 153 pd backward;
#X obj 305 194 list store;
#N canvas 121 159 450 300 rnd 0;
#X obj 40 48 inlet;
#X obj 37 89 route 3;
#X msg 35 146 1;
#X msg 73 148 0;
#X obj 158 64 inlet;
#X text 44 25 mode;
#X obj 88 204 random;
#X obj 90 229 outlet;
#X obj 86 173 metro 1000;
#X text 164 41 moveSpeed;
#X obj 36 116 t b f b;
#X connect 0 0 1 0;
#X connect 1 0 10 0;
#X connect 1 1 3 0;
#X connect 2 0 8 0;
#X connect 3 0 8 0;
#X connect 4 0 8 1;
#X connect 6 0 7 0;
#X connect 8 0 6 0;
#X connect 10 0 2 0;
#X connect 10 1 6 1;
#X restore 747 154 pd rnd;
#X obj 315 119 route 0 1 2, f 78;
#X obj 312 88 list append \$1;
#X text 421 87 \$1 is n° of channels;
#N canvas 644 149 450 547 f-b 0;
#X obj 108 184 until;
#X obj 119 326 list store;
#X obj 39 248 bng 15 250 50 0 empty empty empty 17 7 0 10 #fcfcfc #000000
#000000;
#X msg 115 297 append \$1;
#X msg 208 300 delete 0 -1;
#X obj 151 39 inlet;
#X obj 118 361 outlet;
#X obj 158 187 1;
#X obj 153 220 + 1;
#X obj 141 125 * 2;
#X obj 110 215 f 1;
#X obj 238 200 route 10;
#X obj 239 229 -1;
#X obj 259 151 - 1;
#X obj 139 152 - 2;
#X obj 126 93 t b f f b b b;
#X connect 0 0 10 0;
#X connect 1 0 6 0;
#X connect 2 0 1 0;
#X connect 3 0 1 0;
#X connect 4 0 1 0;
#X connect 5 0 15 0;
#X connect 7 0 10 1;
#X connect 7 0 8 1;
#X connect 8 0 10 1;
#X connect 9 0 14 0;
#X connect 10 0 8 0;
#X connect 10 0 11 0;
#X connect 10 0 3 0;
#X connect 11 0 12 0;
#X connect 12 0 8 1;
#X connect 13 0 11 1;
#X connect 14 0 0 0;
#X connect 15 0 2 0;
#X connect 15 1 9 0;
#X connect 15 2 13 0;
#X connect 15 3 7 0;
#X connect 15 4 4 0;
#X restore 669 153 pd f-b;
#X f 7;
#X obj 63 48 t b b;
#X obj 14 82 0;
#X obj 17 171 0;
#X connect 0 0 21 0;
#X connect 1 0 24 0;
#X connect 3 0 6 0;
#X connect 4 0 3 1;
#X connect 4 0 19 1;
#X connect 6 0 7 0;
#X connect 6 0 8 0;
#X connect 6 0 12 0;
#X connect 7 0 6 1;
#X connect 8 0 9 0;
#X connect 9 0 26 0;
#X connect 10 0 13 0;
#X connect 12 0 10 0;
#X connect 14 0 15 0;
#X connect 15 0 8 1;
#X connect 16 0 18 0;
#X connect 17 0 18 0;
#X connect 18 0 10 1;
#X connect 18 0 14 0;
#X connect 19 0 13 0;
#X connect 20 0 16 0;
#X connect 20 1 17 0;
#X connect 20 2 23 0;
#X connect 21 0 20 0;
#X connect 21 0 19 0;
#X connect 23 0 18 0;
#X connect 24 0 3 0;
#X connect 24 1 25 0;
#X connect 25 0 6 1;
#X connect 26 0 6 1;
