#N canvas 658 119 737 518 12;
#X text 206 28 active;
#X text 316 21 speed;
#X text 446 24 intensity;
#X obj 313 102 / 2;
#X obj 324 162 pack f f;
#X obj 387 105 t b f;
#X obj 238 218 list store;
#X obj 432 259 del;
#X obj 239 260 t b l;
#X obj 398 331 list store;
#X msg 399 365 \$2 \, 0 \$1;
#X obj 206 113 t b;
#X obj 310 51 r \$1-chen-speed;
#X obj 445 53 r \$1-chen-int;
#X obj 206 82 route \$2;
#X obj 185 52 r \$1-chen-index;
#X obj 291 443 list prepend \$2;
#X obj 290 477 s \$1-chen-out;
#X msg 238 301 \$2 \$1;
#X obj 292 415 line 0;
#X connect 3 0 4 0;
#X connect 3 0 7 1;
#X connect 4 0 6 1;
#X connect 4 0 9 1;
#X connect 5 0 4 0;
#X connect 5 1 4 1;
#X connect 6 0 8 0;
#X connect 7 0 9 0;
#X connect 8 0 7 0;
#X connect 8 1 18 0;
#X connect 9 0 10 0;
#X connect 10 0 19 0;
#X connect 11 0 6 0;
#X connect 12 0 3 0;
#X connect 13 0 5 0;
#X connect 14 0 11 0;
#X connect 15 0 14 0;
#X connect 16 0 17 0;
#X connect 18 0 19 0;
#X connect 19 0 16 0;
